<svg width="27" height="27" fill="none" xmlns="http://www.w3.org/2000/svg"><path d="M18.563 0H8.438A8.438 8.438 0 000 8.438v10.124A8.438 8.438 0 008.438 27h10.124A8.438 8.438 0 0027 18.562V8.438A8.438 8.438 0 0018.562 0zm5.906 18.563a5.913 5.913 0 01-5.907 5.906H8.438a5.913 5.913 0 01-5.906-5.907V8.438a5.913 5.913 0 015.906-5.906h10.126a5.913 5.913 0 015.906 5.906v10.126z" fill="url(#paint0_linear)"/><path d="M13.5 6.75a6.75 6.75 0 100 13.5 6.75 6.75 0 000-13.5zm0 10.969A4.225 4.225 0 019.281 13.5 4.223 4.223 0 0113.5 9.281a4.224 4.224 0 014.219 4.219 4.225 4.225 0 01-4.219 4.219z" fill="url(#paint1_linear)"/><path d="M20.756 7.143a.9.9 0 100-1.799.9.9 0 000 1.8z" fill="url(#paint2_linear)"/><defs><linearGradient id="paint0_linear" x1="2.472" y1="24.529" x2="24.528" y2="2.471" gradientUnits="userSpaceOnUse"><stop stop-color="#FFC107"/><stop offset=".507" stop-color="#F44336"/><stop offset=".99" stop-color="#9C27B0"/></linearGradient><linearGradient id="paint1_linear" x1="8.727" y1="18.273" x2="18.273" y2="8.727" gradientUnits="userSpaceOnUse"><stop stop-color="#FFC107"/><stop offset=".507" stop-color="#F44336"/><stop offset=".99" stop-color="#9C27B0"/></linearGradient><linearGradient id="paint2_linear" x1="20.12" y1="6.88" x2="21.392" y2="5.608" gradientUnits="userSpaceOnUse"><stop stop-color="#FFC107"/><stop offset=".507" stop-color="#F44336"/><stop offset=".99" stop-color="#9C27B0"/></linearGradient></defs></svg>