<svg width="26" height="26" fill="none" xmlns="http://www.w3.org/2000/svg"><path d="M13.003 0h-.006C5.829 0 0 5.83 0 13a12.9 12.9 0 002.475 7.62l-1.62 4.83 4.997-1.598A12.888 12.888 0 0013.003 26C20.171 26 26 20.168 26 13S20.171 0 13.003 0z" fill="#4CAF50"/><path d="M20.568 18.358c-.314.885-1.559 1.62-2.552 1.834-.679.145-1.566.26-4.553-.978-3.82-1.583-6.28-5.465-6.472-5.717-.184-.252-1.544-2.055-1.544-3.92 0-1.866.947-2.775 1.33-3.165.313-.32.831-.466 1.329-.466.16 0 .305.008.435.015.382.016.574.039.826.641.313.756 1.077 2.622 1.168 2.813.092.192.185.452.055.704-.122.26-.229.375-.42.596-.192.221-.374.39-.566.627-.176.207-.374.428-.153.81.221.373.985 1.62 2.11 2.62 1.45 1.293 2.627 1.705 3.048 1.881.313.13.687.1.916-.145.291-.313.65-.833 1.016-1.345.26-.367.588-.413.933-.283.35.122 2.208 1.04 2.59 1.23.382.192.634.283.726.444.091.16.091.916-.222 1.804z" fill="#FAFAFA"/></svg>