<svg width="34" height="34" viewBox="0 0 34 34" fill="none" xmlns="http://www.w3.org/2000/svg">
<g clip-path="url(#clip0)">
<path d="M16.6362 26.6177H18.6679C18.6679 26.6177 19.282 26.5497 19.5944 26.2118C19.8834 25.9015 19.8728 25.3192 19.8728 25.3192C19.8728 25.3192 19.8324 22.5926 21.099 22.191C22.3465 21.7957 23.9489 24.8262 25.6469 25.9929C26.9305 26.8748 27.9059 26.6814 27.9059 26.6814L32.4474 26.6177C32.4474 26.6177 34.8233 26.471 33.697 24.603C33.6056 24.45 33.0403 23.2217 30.3201 20.697C27.4724 18.0533 27.8549 18.4826 31.2849 13.9114C33.3739 11.1274 34.2091 9.42727 33.9477 8.70046C33.6991 8.00766 32.1626 8.19043 32.1626 8.19043L27.0537 8.22018C27.0537 8.22018 26.6754 8.16917 26.3928 8.33706C26.1187 8.50282 25.9423 8.88535 25.9423 8.88535C25.9423 8.88535 25.1326 11.0403 24.053 12.8721C21.777 16.7378 20.8653 16.9418 20.4934 16.7017C19.6284 16.1428 19.8452 14.4533 19.8452 13.2547C19.8452 9.50802 20.4126 7.94603 18.738 7.54225C18.1812 7.40837 17.7732 7.31911 16.3514 7.30424C14.528 7.28511 12.9831 7.31061 12.1096 7.73777C11.5273 8.02254 11.0789 8.65796 11.3531 8.69409C11.691 8.73872 12.456 8.90023 12.8619 9.45277C13.3868 10.1647 13.3677 11.7671 13.3677 11.7671C13.3677 11.7671 13.6695 16.1768 12.6643 16.7251C11.9736 17.1012 11.0279 16.334 8.99839 12.8254C7.95919 11.0296 7.17288 9.04262 7.17288 9.04262C7.17288 9.04262 7.02199 8.67284 6.7521 8.4752C6.42482 8.23505 5.96579 8.15855 5.96579 8.15855L1.10768 8.1883C1.10768 8.1883 0.378752 8.20955 0.110983 8.5262C-0.127035 8.80885 0.0918562 9.39114 0.0918562 9.39114C0.0918562 9.39114 3.89589 18.2892 8.20145 22.7754C12.1521 26.8876 16.6362 26.6177 16.6362 26.6177Z" fill="#1E88E5"/>
</g>
<defs>
<clipPath id="clip0">
<rect width="34" height="34" fill="white"/>
</clipPath>
</defs>
</svg>
