<svg width="26" height="26" viewBox="0 0 26 26" fill="none" xmlns="http://www.w3.org/2000/svg">
<path d="M13.0033 0H12.9967C5.82888 0 0 5.8305 0 13C0 15.8438 0.9165 18.4795 2.47487 20.6196L0.85475 25.4491L5.85162 23.8518C7.90725 25.2135 10.3594 26 13.0033 26C20.1711 26 26 20.1679 26 13C26 5.83213 20.1711 0 13.0033 0Z" fill="#4CAF50"/>
<path d="M20.5676 18.3576C20.254 19.2433 19.0093 19.9778 18.0164 20.1923C17.3371 20.3369 16.4499 20.4523 13.4631 19.214C9.64277 17.6313 7.18252 13.7491 6.99077 13.4973C6.80715 13.2454 5.44702 11.4416 5.44702 9.57614C5.44702 7.71064 6.3944 6.80227 6.77627 6.41227C7.0899 6.09214 7.60827 5.94589 8.10552 5.94589C8.2664 5.94589 8.41102 5.95402 8.54102 5.96052C8.9229 5.97677 9.11465 5.99952 9.36652 6.60239C9.68015 7.35802 10.4439 9.22352 10.5349 9.41527C10.6275 9.60702 10.7201 9.86702 10.5901 10.1189C10.4683 10.3789 10.361 10.4943 10.1693 10.7153C9.97752 10.9363 9.79552 11.1053 9.60377 11.3425C9.42827 11.5489 9.23002 11.7699 9.45102 12.1518C9.67202 12.5255 10.4358 13.7719 11.5603 14.7729C13.0114 16.0648 14.1879 16.4775 14.6088 16.653C14.9224 16.783 15.2961 16.7521 15.5253 16.5084C15.8161 16.1948 16.1753 15.6748 16.5409 15.1629C16.8009 14.7956 17.1291 14.7501 17.4736 14.8801C17.8246 15.002 19.682 15.9201 20.0639 16.1103C20.4458 16.302 20.6976 16.393 20.7903 16.5539C20.8813 16.7148 20.8813 17.4704 20.5676 18.3576Z" fill="#FAFAFA"/>
</svg>
